<mxfile host="app.diagrams.net" modified="2024-06-26T07:20:11.655Z" agent="Mozilla/5.0 (Windows NT 10.0; Win64; x64) AppleWebKit/537.36 (KHTML, like Gecko) Chrome/126.0.0.0 Safari/537.36" etag="eCN_3NHKAohe0r9VJkfZ" version="24.6.3" type="device">
  <diagram name="페이지-1" id="L8jfgrKpCcLMpMqRKeH3">
    <mxGraphModel dx="712" dy="616" grid="0" gridSize="10" guides="1" tooltips="1" connect="1" arrows="1" fold="1" page="1" pageScale="1" pageWidth="827" pageHeight="1169" math="0" shadow="0">
      <root>
        <mxCell id="0" />
        <mxCell id="1" parent="0" />
        <mxCell id="JaRT182NyoHVZg690AKc-2" value="사용자" style="shape=umlActor;verticalLabelPosition=bottom;verticalAlign=top;html=1;outlineConnect=0;" parent="1" vertex="1">
          <mxGeometry x="70" y="230" width="30" height="60" as="geometry" />
        </mxCell>
        <mxCell id="JaRT182NyoHVZg690AKc-3" value="System" style="swimlane;whiteSpace=wrap;html=1;" parent="1" vertex="1">
          <mxGeometry x="180" y="110" width="610" height="287" as="geometry" />
        </mxCell>
        <mxCell id="JaRT182NyoHVZg690AKc-7" value="메인 페이지" style="ellipse;whiteSpace=wrap;html=1;" parent="JaRT182NyoHVZg690AKc-3" vertex="1">
          <mxGeometry x="20" y="110" width="120" height="80" as="geometry" />
        </mxCell>
        <mxCell id="JaRT182NyoHVZg690AKc-8" value="" style="endArrow=none;html=1;rounded=0;exitX=1;exitY=0.5;exitDx=0;exitDy=0;entryX=0;entryY=0.5;entryDx=0;entryDy=0;" parent="JaRT182NyoHVZg690AKc-3" source="JaRT182NyoHVZg690AKc-7" target="JaRT182NyoHVZg690AKc-9" edge="1">
          <mxGeometry width="50" height="50" relative="1" as="geometry">
            <mxPoint x="140" y="109.5" as="sourcePoint" />
            <mxPoint x="245" y="109.5" as="targetPoint" />
          </mxGeometry>
        </mxCell>
        <mxCell id="JaRT182NyoHVZg690AKc-9" value="채팅 대기방 페이지" style="ellipse;whiteSpace=wrap;html=1;" parent="JaRT182NyoHVZg690AKc-3" vertex="1">
          <mxGeometry x="190" y="115" width="140" height="70" as="geometry" />
        </mxCell>
        <mxCell id="JaRT182NyoHVZg690AKc-13" value="채팅 방 페이지" style="ellipse;whiteSpace=wrap;html=1;" parent="JaRT182NyoHVZg690AKc-3" vertex="1">
          <mxGeometry x="395" y="50" width="140" height="70" as="geometry" />
        </mxCell>
        <mxCell id="JaRT182NyoHVZg690AKc-14" value="" style="endArrow=none;html=1;rounded=0;exitX=1;exitY=0;exitDx=0;exitDy=0;entryX=0;entryY=0.5;entryDx=0;entryDy=0;" parent="JaRT182NyoHVZg690AKc-3" source="JaRT182NyoHVZg690AKc-9" target="JaRT182NyoHVZg690AKc-13" edge="1">
          <mxGeometry width="50" height="50" relative="1" as="geometry">
            <mxPoint x="150" y="210" as="sourcePoint" />
            <mxPoint x="210" y="210" as="targetPoint" />
          </mxGeometry>
        </mxCell>
        <mxCell id="JaRT182NyoHVZg690AKc-15" value="&lt;div&gt;채팅 방 생성 페이지&lt;/div&gt;" style="ellipse;whiteSpace=wrap;html=1;" parent="JaRT182NyoHVZg690AKc-3" vertex="1">
          <mxGeometry x="395" y="185" width="140" height="70" as="geometry" />
        </mxCell>
        <mxCell id="JaRT182NyoHVZg690AKc-16" value="" style="endArrow=none;html=1;rounded=0;exitX=1;exitY=1;exitDx=0;exitDy=0;entryX=0.007;entryY=0.414;entryDx=0;entryDy=0;entryPerimeter=0;" parent="JaRT182NyoHVZg690AKc-3" source="JaRT182NyoHVZg690AKc-9" target="JaRT182NyoHVZg690AKc-15" edge="1">
          <mxGeometry width="50" height="50" relative="1" as="geometry">
            <mxPoint x="319" y="135" as="sourcePoint" />
            <mxPoint x="405" y="95" as="targetPoint" />
          </mxGeometry>
        </mxCell>
        <mxCell id="JaRT182NyoHVZg690AKc-6" value="" style="endArrow=none;html=1;rounded=0;entryX=0;entryY=0.5;entryDx=0;entryDy=0;exitX=0.5;exitY=0.5;exitDx=0;exitDy=0;exitPerimeter=0;" parent="1" source="JaRT182NyoHVZg690AKc-2" target="JaRT182NyoHVZg690AKc-7" edge="1">
          <mxGeometry width="50" height="50" relative="1" as="geometry">
            <mxPoint x="50" y="250" as="sourcePoint" />
            <mxPoint x="160" y="340" as="targetPoint" />
          </mxGeometry>
        </mxCell>
      </root>
    </mxGraphModel>
  </diagram>
</mxfile>
